<?xml version="1.0" standalone="no"?>
<!DOCTYPE svg PUBLIC "-//W3C//DTD SVG 20010904//EN"
 "http://www.w3.org/TR/2001/REC-SVG-20010904/DTD/svg10.dtd">
<svg version="1.0" xmlns="http://www.w3.org/2000/svg"
 width="960.000000pt" height="960.000000pt" viewBox="0 0 960.000000 960.000000"
 preserveAspectRatio="xMidYMid meet">

<g transform="translate(0.000000,960.000000) scale(0.100000,-0.100000)"
fill="#000000" stroke="none">
<path d="M5258 8654 c-21 -15 -38 -35 -38 -45 0 -9 -7 -19 -15 -23 -8 -3 -15
-16 -15 -29 0 -13 -5 -28 -11 -34 -6 -6 -14 -41 -18 -79 -6 -61 -8 -65 -15
-36 -9 37 -26 43 -27 10 -1 -18 -3 -16 -10 10 -5 17 -16 32 -24 32 -19 0 -14
37 10 74 10 15 14 33 10 43 -5 15 -15 9 -56 -37 -27 -30 -49 -58 -49 -62 0 -3
-10 -8 -22 -10 -14 -2 -25 -14 -31 -33 -12 -35 -28 -49 -39 -32 -4 7 -11 2
-17 -15 -6 -15 -21 -44 -35 -65 -13 -21 -30 -55 -37 -76 -7 -21 -21 -46 -31
-56 -9 -11 -14 -22 -10 -26 4 -3 -4 -15 -18 -25 -20 -16 -22 -20 -7 -20 27 0
20 -30 -15 -65 -18 -17 -42 -49 -53 -71 -11 -21 -23 -40 -27 -42 -5 -2 -8 -10
-8 -17 0 -8 -12 -31 -26 -52 -19 -28 -24 -46 -20 -67 3 -16 6 -37 6 -47 0 -11
7 -19 15 -19 28 0 35 -37 32 -167 -3 -128 -3 -128 -45 -213 -23 -47 -56 -104
-74 -128 l-32 -42 55 -56 c137 -140 310 -233 507 -274 98 -20 125 -18 115 7
-4 11 -1 14 13 11 11 -2 18 -11 18 -21 -1 -11 5 -17 18 -17 19 0 19 1 -2 35
-28 46 -24 99 8 103 12 2 27 12 33 23 9 18 13 19 32 6 23 -15 57 -7 85 20 32
30 89 -50 75 -105 -4 -16 -2 -23 5 -18 6 3 13 -3 17 -14 8 -26 16 -26 116 11
151 55 267 129 377 242 54 54 54 55 37 80 -16 25 -16 27 15 57 34 33 57 35 52
4 -2 -16 -1 -16 7 -4 6 8 8 23 5 33 -3 11 0 17 10 17 18 0 42 73 51 150 9 76
14 92 31 86 11 -4 14 2 14 27 -1 17 1 54 3 81 3 45 0 55 -41 115 -25 36 -45
74 -44 83 0 10 -3 20 -9 23 -5 4 -9 1 -9 -4 0 -6 -4 -11 -10 -11 -5 0 -10 6
-10 14 0 7 -6 18 -13 24 -19 16 -22 51 -21 220 0 83 -3 152 -7 152 -5 0 -6 6
-3 14 3 8 -6 50 -21 93 -22 67 -34 88 -80 132 -49 48 -56 51 -77 40 -13 -6
-24 -13 -26 -14 -2 -2 9 -23 24 -47 22 -34 29 -61 36 -133 4 -49 12 -114 16
-143 8 -48 6 -55 -12 -68 -13 -9 -45 -14 -87 -14 -52 0 -72 -4 -90 -20 -27
-22 -28 -22 68 -20 62 1 74 -2 92 -21 11 -12 20 -23 18 -24 -1 -1 -35 1 -76 5
-48 5 -91 3 -120 -4 -58 -15 -103 -7 -217 37 -73 29 -84 36 -59 38 17 1 35 3
42 3 52 5 -10 53 -95 73 -76 19 -112 42 -112 71 0 10 22 62 49 116 27 54 47
104 44 112 -3 8 3 24 13 35 19 21 19 21 -6 17 -14 -2 -24 -8 -23 -14 1 -9 -17
-10 -64 -5 -7 0 -13 10 -13 21 0 20 63 70 88 70 7 0 11 4 8 9 -4 5 0 12 6 14
7 3 1 6 -14 6 -14 1 -32 3 -40 6 -7 3 -30 -7 -50 -21z m32 -143 c0 -10 -9 -29
-20 -42 l-19 -24 -1 27 c0 15 7 34 16 42 20 21 24 20 24 -3z m-230 -36 c0 -8
-4 -15 -10 -15 -5 0 -10 7 -10 15 0 8 5 15 10 15 6 0 10 -7 10 -15z m956 -172
c-10 -10 -19 5 -10 18 6 11 8 11 12 0 2 -7 1 -15 -2 -18z m-656 -140 l25 -25
-34 6 c-18 3 -43 6 -55 6 -11 0 -28 5 -36 10 -13 9 -12 12 5 26 26 19 62 11
95 -23z m72 -62 c86 -28 102 -43 94 -92 -6 -34 -23 -68 -71 -136 -45 -64 -267
-42 -294 29 -23 65 -21 83 15 120 31 32 32 36 15 41 -20 5 -23 30 -5 46 28 27
149 23 246 -8z m408 -61 c10 -7 -2 -8 -40 -4 -30 4 -57 8 -59 10 -10 9 86 3
99 -6z m-130 -20 c-15 -27 -6 -38 36 -46 26 -5 40 -2 54 11 11 10 23 15 28 11
4 -4 -1 -14 -11 -21 -18 -13 -17 -14 2 -20 12 -3 21 -11 21 -16 0 -5 6 -9 14
-9 7 0 25 -9 40 -21 22 -17 26 -28 26 -74 0 -46 -3 -54 -22 -60 -13 -3 -18 -9
-11 -11 19 -8 -5 -62 -42 -89 -17 -14 -40 -44 -49 -68 -36 -87 -53 -112 -135
-203 -92 -103 -111 -113 -201 -107 -121 8 -137 18 -286 195 -74 87 -83 105
-63 125 13 13 7 78 -12 140 -11 36 -11 46 6 82 21 47 26 49 66 21 27 -20 139
-49 187 -50 14 0 26 -8 32 -22 l9 -23 0 22 c1 14 14 30 39 44 48 30 64 50 102
127 29 60 33 63 63 60 29 -3 32 -7 35 -38 5 -71 23 -136 48 -173 14 -21 22
-42 19 -47 -4 -6 10 -29 29 -52 20 -23 36 -48 36 -55 0 -7 5 -13 10 -13 20 0
9 29 -25 70 -19 23 -35 46 -35 52 0 6 26 7 68 4 l67 -6 -65 15 c-39 9 -73 24
-88 38 -47 47 -52 182 -9 212 28 20 30 19 17 -5z m-1005 -59 c-3 -6 -11 -11
-17 -11 -6 0 -6 6 2 15 14 17 26 13 15 -4z m1375 -507 c0 -14 -4 -23 -9 -20
-5 3 -7 15 -4 26 7 28 13 25 13 -6z m40 -21 c0 -24 -17 -49 -26 -40 -4 4 -1
18 6 32 16 30 20 31 20 8z m17 -5 c-3 -8 -6 -5 -6 6 -1 11 2 17 5 13 3 -3 4
-12 1 -19z m-57 -68 c0 -5 -2 -10 -4 -10 -3 0 -8 5 -11 10 -3 6 -1 10 4 10 6
0 11 -4 11 -10z"/>
<path d="M5330 8077 c0 -17 -37 -39 -45 -27 -3 6 -3 15 1 22 4 7 3 8 -4 4 -7
-4 -12 -16 -12 -27 0 -14 7 -19 25 -19 14 0 25 5 25 10 0 6 6 9 12 8 7 -2 14
7 16 20 2 12 -1 22 -7 22 -6 0 -11 -6 -11 -13z"/>
<path d="M5378 8063 c6 -2 12 -13 12 -24 0 -20 15 -26 25 -9 9 15 -14 40 -34
39 -10 0 -11 -2 -3 -6z"/>
<path d="M5431 7761 c-7 -5 -9 -11 -4 -14 14 -9 83 4 77 14 -7 11 -55 11 -73
0z"/>
<path d="M5232 7734 c-41 -18 -47 -33 -31 -81 7 -21 14 -32 16 -25 7 19 23 14
60 -18 39 -34 57 -38 48 -11 -5 18 -1 19 62 17 37 -1 76 0 86 2 38 10 -8 22
-83 23 -92 1 -144 17 -148 47 -2 13 -8 19 -14 16 -7 -4 -8 -2 -4 4 4 7 13 12
19 12 7 0 21 7 31 15 26 19 3 19 -42 -1z"/>
<path d="M5500 7619 c0 -5 11 -9 25 -9 14 0 25 2 25 4 0 2 -11 6 -25 8 -14 3
-25 1 -25 -3z"/>
<path d="M5646 7594 c-16 -16 -22 -39 -8 -32 4 2 24 12 45 21 20 10 37 19 37
22 0 12 -60 3 -74 -11z"/>
<path d="M5444 7455 c22 -17 62 -20 70 -6 7 10 -27 21 -64 21 -24 -1 -24 -1
-6 -15z"/>
<path d="M5780 8631 c0 -15 51 -51 71 -51 30 0 22 15 -20 38 -43 24 -51 26
-51 13z"/>
<path d="M5337 8604 c-16 -14 -25 -29 -22 -32 4 -4 14 3 23 14 9 12 26 26 37
32 14 8 16 11 5 12 -8 0 -28 -12 -43 -26z"/>
<path d="M6069 8178 c0 -7 -4 -34 -8 -60 -4 -26 -4 -45 1 -42 4 3 8 -2 8 -11
0 -9 4 -14 8 -11 5 3 19 -19 31 -49 16 -40 28 -55 42 -55 24 0 24 19 -1 90
-11 30 -19 67 -20 83 0 39 -59 92 -61 55z"/>
<path d="M7485 8103 c-104 -16 -212 -69 -265 -132 -54 -63 -124 -192 -154
-283 -26 -79 -70 -302 -83 -423 -5 -38 -5 -95 -2 -125 17 -139 3 -214 -57
-295 -12 -16 -27 -48 -34 -70 -7 -22 -24 -53 -37 -69 -13 -16 -22 -30 -20 -32
2 -3 49 12 103 32 54 20 133 47 175 61 75 26 77 27 103 80 15 31 31 51 37 47
6 -3 8 -12 5 -20 -8 -21 13 -222 29 -279 l15 -50 -5 60 c-13 170 -15 251 -7
263 7 10 20 4 58 -29 66 -57 117 -79 187 -79 63 0 99 14 136 54 14 14 30 26
38 26 15 0 17 -12 4 -25 -4 -6 -11 -28 -14 -50 l-5 -40 14 35 c8 19 27 64 41
99 l27 63 18 -53 c10 -29 22 -57 27 -62 11 -11 136 -20 177 -12 31 5 32 7 23
37 -5 19 -5 79 2 152 12 141 7 393 -8 421 -12 23 -21 145 -11 160 6 11 -21
170 -45 260 -6 22 -25 46 -84 109 -35 36 -63 70 -63 75 0 6 -27 33 -61 61 -60
50 -62 51 -122 48 -34 -1 -98 -8 -142 -15z m185 -205 c37 -16 104 -83 122
-124 6 -13 14 -24 18 -24 26 0 82 -251 84 -375 1 -74 -5 -111 -32 -209 -18
-65 -39 -130 -47 -145 -24 -47 -89 -119 -148 -165 -68 -53 -132 -66 -219 -46
-46 11 -64 24 -131 90 -91 91 -119 146 -137 271 -14 93 -12 101 39 168 32 43
98 84 123 78 25 -7 75 22 82 48 7 25 -18 45 -55 45 -60 0 -46 46 17 56 24 3
47 11 50 16 8 13 -15 28 -44 28 -32 0 -36 20 -12 74 11 26 20 62 20 80 0 21
11 49 30 74 17 23 30 46 30 51 0 32 143 38 210 9z"/>
<path d="M7658 7603 c-20 -2 -42 -10 -48 -18 -20 -24 23 -37 107 -31 65 4 81
2 104 -15 34 -24 39 -24 39 1 0 12 -11 31 -25 44 -25 23 -80 29 -177 19z"/>
<path d="M7713 7503 c9 -2 15 -9 12 -14 -9 -13 -53 -11 -57 3 -3 7 -14 9 -30
5 -22 -6 -27 -13 -26 -37 1 -23 7 -32 25 -36 12 -4 23 -10 23 -15 0 -5 27 -7
61 -5 123 7 129 84 7 99 -18 2 -25 2 -15 0z m-53 -63 c0 -5 -4 -10 -10 -10 -5
0 -10 5 -10 10 0 6 5 10 10 10 6 0 10 -4 10 -10z m80 -10 c0 -5 -5 -10 -11
-10 -5 0 -7 5 -4 10 3 6 8 10 11 10 2 0 4 -4 4 -10z"/>
<path d="M7578 7472 c-3 -9 -1 -26 3 -37 5 -13 8 -15 8 -5 1 8 4 25 7 38 4 12
2 22 -4 22 -5 0 -12 -8 -14 -18z"/>
<path d="M7450 7240 c-19 -12 -13 -16 35 -24 30 -5 36 -4 25 4 -34 24 -47 28
-60 20z"/>
<path d="M7550 7220 l-25 -19 38 11 c20 6 37 15 37 20 0 14 -24 8 -50 -12z"/>
<path d="M7475 7090 c-74 -8 -138 -27 -100 -30 52 -5 244 -12 273 -11 6 1 12
5 12 9 0 9 -95 44 -109 41 -3 -1 -37 -5 -76 -9z"/>
<path d="M7500 6990 c0 -5 9 -10 21 -10 11 0 17 5 14 10 -3 6 -13 10 -21 10
-8 0 -14 -4 -14 -10z"/>
<path d="M2850 8062 c-78 -26 -95 -39 -151 -112 -27 -36 -73 -95 -102 -132
-44 -56 -100 -167 -131 -262 -6 -17 -4 -17 10 -5 15 13 16 9 11 -41 -3 -30 -6
-59 -8 -65 -1 -5 3 -23 10 -39 8 -21 9 -32 0 -42 -16 -20 -18 -93 -2 -138 19
-56 16 -88 -12 -115 -14 -13 -25 -31 -25 -40 0 -10 8 -4 21 17 12 17 25 32 30
32 12 0 23 -46 14 -60 -12 -20 -17 -107 -6 -90 14 20 14 1 0 -38 -6 -18 -15
-29 -20 -26 -5 3 -6 -1 -4 -9 3 -7 -15 -35 -41 -63 -26 -27 -47 -52 -46 -56 1
-4 -12 -15 -28 -23 -17 -9 -30 -22 -30 -30 0 -8 -5 -15 -10 -15 -6 0 -19 -14
-30 -32 -19 -31 -19 -32 1 -59 31 -45 26 -52 -33 -43 -103 16 -120 13 -135
-24 -8 -19 -9 -31 -3 -27 5 3 10 12 10 18 1 34 16 40 68 27 l51 -12 -21 -43
c-18 -36 -25 -42 -49 -40 -34 3 -33 2 36 -81 27 -34 62 -77 77 -96 40 -52 151
-132 253 -182 94 -46 232 -92 243 -81 8 8 9 17 12 143 2 51 7 91 12 90 11 -4
58 -117 58 -140 0 -10 5 -18 10 -18 6 0 10 26 10 59 0 35 5 63 13 68 20 17 48
11 59 -12 9 -19 15 -21 45 -15 19 5 53 21 75 37 82 57 94 63 121 63 15 0 36
-9 48 -21 23 -23 22 -51 -12 -178 -20 -76 -20 -87 4 -78 14 5 32 74 42 162 9
79 27 165 35 165 3 0 6 10 6 23 -1 14 4 21 13 19 10 -2 12 4 7 20 -15 52 -33
158 -27 158 4 0 22 -14 40 -31 37 -33 69 -48 117 -55 17 -2 44 -8 58 -14 37
-14 41 -13 25 6 -15 18 -73 49 -111 58 -15 3 -34 16 -42 29 -13 19 -13 32 5
106 18 77 18 110 1 86 -4 -6 -41 -56 -83 -111 -63 -85 -78 -111 -87 -160 -7
-32 -9 -69 -6 -81 8 -31 -25 -83 -53 -83 -12 0 -46 -9 -75 -20 -30 -11 -76
-24 -102 -29 -44 -8 -51 -7 -66 12 -18 22 -17 71 1 93 5 6 10 23 11 38 2 19 8
26 23 26 12 0 29 6 38 13 14 11 15 17 1 67 -19 74 -18 109 4 116 9 3 25 10 34
15 10 5 29 9 43 9 46 0 114 22 138 44 12 11 36 29 51 40 l29 19 -24 13 c-13 7
-34 13 -47 14 -13 0 -20 4 -17 10 3 5 -4 15 -17 21 -27 12 -51 69 -49 119 4
124 -2 289 -11 311 -6 14 -30 36 -52 48 -23 11 -56 30 -74 41 -32 20 -32 20
-15 47 10 16 25 35 35 44 25 22 48 82 42 106 -11 43 133 71 196 38 35 -18 80
-71 80 -94 0 -10 8 -29 19 -42 22 -29 51 -84 51 -98 0 -15 -32 -30 -73 -34
-38 -4 -87 -31 -87 -47 0 -6 15 -10 33 -11 30 0 30 -1 10 -11 -17 -8 -43 -53
-43 -74 0 -2 39 -4 88 -4 l87 0 24 -38 c14 -21 26 -58 29 -85 6 -60 19 -69 28
-20 4 21 15 57 26 81 10 24 18 53 18 65 0 12 9 49 20 82 30 88 38 270 15 354
-19 74 -51 141 -66 141 -6 0 -8 4 -5 9 5 7 -50 65 -57 59 -1 -2 -22 15 -45 37
-24 22 -53 46 -65 55 -12 8 -38 30 -57 48 -58 56 -74 62 -153 67 -50 3 -89 11
-116 24 -58 30 -135 35 -201 13z m620 -797 c19 -23 3 -35 -28 -19 -15 7 -43
14 -62 15 l-35 2 35 7 c57 12 77 11 90 -5z m-441 -38 c13 -16 5 -27 -20 -27
-12 0 -16 6 -12 20 6 23 16 25 32 7z m391 -18 c0 -11 -7 -22 -15 -26 -21 -8
-24 -3 -18 29 6 31 33 28 33 -3z m-348 -118 c-3 -71 -7 -88 -25 -107 -16 -17
-22 -35 -22 -70 0 -47 0 -47 -45 -60 -25 -8 -50 -12 -57 -9 -23 8 -34 -22 -27
-74 4 -28 4 -51 0 -51 -17 0 -46 69 -46 109 0 26 -8 57 -20 77 -14 21 -22 55
-24 99 l-4 66 57 41 c31 23 61 47 67 52 6 6 42 11 80 11 l69 0 -3 -84z m-473
-249 c1 33 17 44 37 27 19 -15 14 -49 -8 -63 -27 -16 -63 23 -52 55 8 23 9 22
15 -11 5 -30 7 -31 8 -8z m-270 -314 c7 -11 9 -24 3 -31 -4 -7 -7 -22 -6 -34
0 -12 -5 -24 -13 -27 -8 -3 -12 -9 -9 -14 2 -4 1 -14 -4 -22 -7 -12 -12 -11
-29 4 -11 10 -18 23 -15 27 3 5 -2 6 -10 3 -24 -9 -21 40 5 86 16 29 26 36 43
33 12 -3 28 -14 35 -25z"/>
<path d="M4629 8053 c-13 -16 -12 -17 4 -4 9 7 17 15 17 17 0 8 -8 3 -21 -13z"/>
<path d="M4612 8000 c0 -14 2 -19 5 -12 2 6 2 18 0 25 -3 6 -5 1 -5 -13z"/>
<path d="M6080 7961 c0 -5 7 -15 17 -22 15 -13 15 -12 4 9 -12 23 -21 28 -21
13z"/>
<path d="M2495 7070 c-3 -5 -1 -10 4 -10 6 0 11 5 11 10 0 6 -2 10 -4 10 -3 0
-8 -4 -11 -10z"/>
<path d="M2436 7035 c-9 -26 -7 -32 5 -12 6 10 9 21 6 23 -2 3 -7 -2 -11 -11z"/>
<path d="M7301 6524 c0 -11 3 -14 6 -6 3 7 2 16 -1 19 -3 4 -6 -2 -5 -13z"/>
<path d="M1005 6507 c-22 -8 -51 -19 -65 -27 -54 -29 -142 -104 -168 -143 -15
-23 -30 -44 -34 -47 -4 -3 -16 -26 -27 -51 -17 -38 -19 -60 -15 -154 5 -132 8
-145 37 -188 l23 -34 12 99 c13 113 19 129 38 104 7 -10 31 -20 53 -23 23 -3
44 -10 48 -16 3 -6 -14 -27 -38 -48 -31 -27 -39 -38 -26 -39 9 0 17 5 17 11 0
6 5 9 11 7 6 -2 10 -8 9 -13 -2 -14 63 -33 78 -21 22 16 41 62 36 83 -3 12 -1
24 5 27 22 14 -8 46 -42 46 -29 1 -30 2 -14 14 23 18 116 29 146 18 l24 -9
-21 -14 c-30 -21 -35 -54 -23 -161 9 -82 9 -100 -5 -127 -9 -18 -14 -46 -12
-62 4 -25 0 -32 -19 -40 -13 -5 -33 -18 -45 -29 -12 -11 -26 -20 -32 -20 -5 0
-7 -2 -4 -5 3 -3 17 0 32 6 21 10 31 10 51 -1 29 -16 32 -36 8 -69 -15 -23
-15 -25 2 -37 10 -8 25 -14 32 -14 26 0 14 -51 -21 -86 l-35 -35 25 -36 25
-37 -31 -30 -30 -31 -37 20 c-85 46 -120 94 -103 141 12 32 8 38 -18 30 -14
-5 -25 -25 -37 -74 l-18 -67 -56 -3 c-87 -4 -148 -20 -249 -68 -108 -50 -108
-52 -20 -126 119 -100 238 -162 371 -193 46 -11 110 -14 242 -12 163 3 187 6
250 29 94 34 167 71 241 123 78 56 90 70 74 90 -15 18 -107 61 -175 81 -67 19
-117 65 -145 134 -12 30 -28 62 -36 71 -20 22 -17 69 5 123 11 25 23 60 26 79
5 24 14 36 33 43 20 8 31 23 44 60 9 27 24 69 33 92 13 38 14 48 2 71 -8 16
-11 37 -6 51 3 14 12 60 18 102 11 72 11 81 -9 125 -24 54 -53 89 -91 109 -18
9 -29 25 -33 46 -20 107 -194 193 -311 155z m-192 -397 c-5 -19 -23 -29 -23
-12 0 7 20 32 26 32 1 0 0 -9 -3 -20z m277 -371 c0 -5 -4 -9 -10 -9 -5 0 -10
7 -10 16 0 8 5 12 10 9 6 -3 10 -10 10 -16z m6 -514 c-21 -16 -32 -13 -21 4 3
6 14 11 23 11 15 -1 15 -2 -2 -15z"/>
<path d="M5248 6365 c-20 -14 -49 -25 -63 -25 -37 0 -123 -46 -173 -94 -49
-46 -111 -166 -136 -261 -28 -110 -47 -288 -36 -346 13 -70 29 -130 40 -154
64 -141 73 -172 74 -245 0 -116 -34 -164 -143 -197 -159 -49 -253 -139 -341
-326 l-39 -82 47 -48 c108 -111 299 -230 454 -283 132 -45 254 -64 406 -64
355 0 647 123 891 375 120 124 119 121 71 187 -21 30 -60 72 -87 93 -26 22
-52 46 -57 53 -7 11 -10 12 -16 2 -13 -21 -40 -3 -40 26 0 14 -8 38 -18 52
-19 27 -26 41 -111 207 l-46 90 -6 195 c-8 227 -24 314 -90 467 -75 176 -260
346 -423 389 -76 20 -116 18 -158 -11z m82 -311 c69 -5 94 -20 121 -72 15 -29
54 -70 90 -96 13 -8 20 -18 17 -21 -3 -3 -34 -12 -69 -19 -35 -7 -81 -21 -101
-29 -38 -16 -38 -16 -38 -76 0 -34 4 -61 10 -61 6 0 10 4 10 9 0 6 17 7 38 5
22 -4 32 -2 25 3 -7 5 -9 14 -4 22 7 10 9 9 14 -3 8 -20 54 -21 124 -3 46 12
53 12 59 -2 4 -9 6 -22 5 -30 -1 -8 2 -10 10 -5 9 5 10 2 6 -10 -4 -9 0 -43 9
-76 13 -53 13 -62 -1 -97 -9 -20 -15 -47 -13 -58 3 -25 -35 -93 -57 -101 -8
-4 -15 -14 -15 -23 0 -24 -37 -81 -58 -88 -9 -3 -25 -14 -35 -24 -20 -21 -83
-40 -135 -41 -66 -1 -116 20 -166 67 -26 25 -51 43 -56 40 -6 -4 -10 -1 -10 4
0 6 -8 11 -19 11 -24 0 -36 15 -58 75 -13 36 -24 50 -38 50 -10 0 -20 5 -22
12 -3 7 4 10 19 6 21 -4 22 -3 6 10 -12 10 -14 17 -7 24 8 8 6 34 -5 88 -9 42
-16 94 -16 114 0 55 47 184 79 217 15 16 33 45 40 64 6 19 19 45 29 57 22 28
112 74 132 67 8 -3 44 -8 80 -10z m250 -253 c0 -17 -21 -23 -93 -28 -56 -3
-69 -1 -60 8 22 22 153 38 153 20z m-60 -776 c0 -7 8 -18 17 -24 13 -7 14 -12
6 -23 -8 -10 -8 -23 3 -53 7 -22 14 -42 14 -45 0 -3 4 1 9 9 10 15 27 -17 57
-109 13 -40 13 -50 -1 -89 -17 -51 -14 -67 5 -21 13 31 30 40 30 16 0 -7 -29
-41 -64 -74 -76 -70 -272 -173 -376 -196 -66 -15 -357 -42 -365 -34 -3 2 13
89 34 194 21 104 44 223 51 264 7 41 16 82 21 92 11 21 110 54 172 57 38 2 57
-3 85 -22 53 -36 91 -41 143 -21 24 10 46 20 49 24 3 3 23 20 45 38 43 35 65
41 65 17z"/>
<path d="M5110 5803 c-37 -6 -85 -30 -101 -50 -13 -15 -12 -16 6 -8 31 15 157
12 162 -2 3 -9 -6 -13 -26 -13 -18 0 -47 -7 -66 -14 -31 -13 -36 -22 -35 -53
1 -12 54 -3 62 10 5 8 12 6 21 -7 11 -15 17 -17 35 -7 12 6 22 17 22 23 0 6 6
5 17 -3 12 -10 17 -11 20 -2 2 7 11 9 20 6 13 -5 15 -1 9 23 -3 16 -8 39 -10
52 -2 13 -7 27 -12 32 -12 10 -91 19 -124 13z"/>
<path d="M5368 5496 c-21 -20 -76 -30 -93 -16 -8 6 -23 9 -35 5 -17 -5 -19
-10 -9 -21 6 -8 22 -14 35 -14 12 0 26 -4 29 -10 10 -16 33 -11 54 12 11 12
29 22 38 23 23 1 43 13 43 26 0 14 -47 11 -62 -5z"/>
<path d="M5490 5411 c-8 -5 -58 -12 -110 -16 -52 -4 -107 -13 -122 -21 -16 -8
-41 -13 -56 -12 -24 3 -27 -1 -30 -29 -3 -35 13 -44 36 -21 9 9 16 7 32 -7 11
-10 18 -25 16 -32 -3 -8 5 -15 20 -19 29 -7 174 12 187 25 5 5 17 7 26 4 14
-4 14 -3 1 6 -8 6 -24 11 -35 11 -17 0 -17 2 5 17 14 9 29 23 33 30 11 17 27
16 47 -2 15 -14 16 -12 12 18 -7 52 -27 67 -62 48z m-95 -81 c-3 -5 -23 -10
-43 -10 -28 0 -33 3 -22 10 20 13 73 13 65 0z m-112 -7 c-7 -2 -19 -2 -25 0
-7 3 -2 5 12 5 14 0 19 -2 13 -5z"/>
<path d="M8155 5980 c-10 -11 -28 -20 -39 -20 -12 0 -27 -4 -33 -8 -7 -5 -39
-5 -70 -2 -48 5 -61 3 -77 -12 -11 -10 -36 -20 -55 -24 -40 -6 -176 -56 -231
-84 -19 -10 -51 -33 -70 -50 -19 -18 -27 -27 -17 -20 10 7 17 8 17 2 0 -11
-28 -24 -38 -18 -12 7 -111 -124 -112 -147 0 -5 -14 -26 -31 -47 -19 -23 -28
-43 -24 -51 5 -7 4 -10 -3 -5 -6 3 -16 -2 -21 -13 -15 -26 -14 -38 1 -23 27
27 35 12 36 -64 1 -43 6 -82 13 -90 9 -11 9 -20 0 -37 -24 -44 -20 -76 15
-127 23 -33 36 -68 43 -109 5 -33 14 -68 19 -78 10 -20 22 -77 27 -135 4 -43
51 -135 76 -148 15 -9 15 -6 2 33 -19 52 -28 200 -16 246 7 29 15 36 53 47 57
17 78 18 63 3 -16 -16 -5 -39 19 -39 24 0 151 -31 160 -39 4 -4 26 -5 49 -3
36 4 43 9 56 40 12 29 13 43 3 75 -9 32 -9 43 5 64 27 41 105 65 91 27 -3 -8
-2 -14 2 -14 4 0 8 -20 8 -45 1 -25 -3 -45 -7 -45 -17 0 -9 -47 12 -74 11 -14
17 -26 12 -26 -4 0 10 -10 32 -21 22 -12 42 -25 43 -30 2 -5 11 -9 19 -9 10 0
13 6 9 15 -4 11 0 15 12 13 10 -2 16 3 14 10 -4 20 19 37 73 55 63 19 189 32
180 17 -3 -5 -1 -10 4 -10 19 0 12 44 -12 72 -28 34 -101 58 -178 58 -52 0
-59 2 -46 14 10 11 36 14 98 12 46 -2 92 1 102 6 14 7 28 -2 67 -42 27 -27 51
-59 55 -70 3 -11 10 -20 14 -20 5 0 16 -28 26 -62 13 -49 16 -81 11 -146 -4
-46 -10 -90 -12 -97 -7 -18 66 19 84 42 7 11 12 52 12 114 0 55 4 101 10 104
6 3 10 21 10 38 0 18 9 46 20 62 15 23 20 47 20 105 0 57 5 83 20 108 11 17
24 32 30 32 5 0 8 22 6 50 -2 27 0 47 5 44 13 -8 11 1 -15 66 -13 32 -27 74
-31 92 -4 18 -23 50 -44 72 -38 41 -151 119 -188 130 -13 4 -23 13 -23 21 0 7
-7 15 -15 19 -8 3 -15 16 -15 28 0 13 -7 34 -16 46 -14 20 -14 22 3 23 13 0
11 4 -9 12 -14 7 -34 20 -45 29 -10 9 -45 28 -78 42 -50 22 -54 26 -25 21 26
-4 30 -3 15 4 -11 5 -52 10 -91 10 -59 1 -74 -2 -89 -19z m95 0 c13 -8 13 -10
-2 -10 -9 0 -20 5 -23 10 -8 13 5 13 25 0z m108 -36 c13 -9 21 -18 18 -21 -3
-3 -12 -1 -19 6 -8 6 -32 18 -53 26 l-39 15 34 -5 c19 -3 46 -12 59 -21z
m-908 -449 c-7 -8 -17 -15 -22 -15 -6 0 -5 7 2 15 7 8 17 15 22 15 6 0 5 -7
-2 -15z m742 -307 c-9 -9 -15 -9 -24 0 -9 9 -7 12 12 12 19 0 21 -3 12 -12z
m166 -170 c-2 -6 -10 -14 -16 -16 -7 -2 -10 2 -6 12 7 18 28 22 22 4z m-578
-34 c0 -9 -7 -14 -17 -12 -25 5 -28 28 -4 28 12 0 21 -6 21 -16z"/>
<path d="M8360 5976 c0 -2 9 -6 20 -9 11 -3 18 -1 14 4 -5 9 -34 13 -34 5z"/>
<path d="M995 5799 c-10 -15 1 -22 24 -14 12 3 19 11 16 16 -8 12 -32 11 -40
-2z"/>
<path d="M2795 5579 c4 -5 1 -18 -7 -27 -35 -45 -42 -95 -17 -128 17 -21 -27
-8 -50 15 -19 19 -25 21 -32 10 -7 -11 -9 -10 -9 4 0 15 -3 16 -20 7 -14 -7
-20 -7 -20 0 0 5 -4 10 -10 10 -5 0 -10 -7 -10 -15 0 -8 -4 -15 -10 -15 -5 0
-10 5 -10 10 0 6 -4 10 -10 10 -5 0 -10 -7 -10 -16 0 -22 -27 -48 -34 -31 -3
7 -7 3 -11 -10 -4 -13 -11 -20 -16 -17 -5 3 -9 -4 -9 -15 0 -12 -4 -21 -9 -21
-5 0 -9 -6 -8 -12 1 -39 -4 -50 -19 -44 -13 5 -12 -1 5 -30 12 -19 17 -33 12
-30 -5 3 -14 -1 -21 -9 -6 -7 -17 -13 -23 -11 -7 1 -9 1 -4 -1 14 -8 7 -30
-17 -56 -40 -43 -46 -59 -29 -76 23 -22 12 -134 -16 -172 -12 -15 -21 -34 -21
-42 0 -7 -3 -17 -7 -21 -4 -3 -8 -16 -10 -28 -2 -12 -7 -26 -12 -32 -4 -6 -11
-50 -14 -97 -7 -97 2 -120 75 -194 30 -31 38 -46 36 -69 -2 -23 -11 -31 -48
-45 -25 -10 -70 -30 -101 -44 -31 -15 -60 -27 -65 -27 -28 -1 -144 -133 -144
-165 0 -14 -5 -25 -11 -25 -5 0 -7 -4 -4 -10 3 -5 -1 -23 -10 -41 -16 -30 -15
-32 9 -69 14 -22 57 -70 97 -109 126 -126 278 -211 454 -257 93 -24 112 -25
265 -21 137 4 180 9 251 30 107 30 203 73 194 87 -3 5 0 7 7 5 19 -8 121 60
193 128 56 52 59 57 47 78 -8 12 -21 45 -29 73 -19 65 -122 265 -148 288 -11
9 -26 15 -33 13 -7 -3 -15 2 -18 9 -4 11 -13 9 -41 -10 -20 -13 -40 -24 -44
-24 -14 0 -10 -43 6 -64 19 -24 19 -56 2 -56 -31 0 -48 26 -54 85 -8 78 -45
130 -77 110 -12 -7 -35 -16 -53 -20 -26 -5 -34 -2 -43 15 -11 21 -21 22 -62 5
-11 -4 -20 0 -28 15 -14 27 -10 32 37 39 24 4 38 12 39 21 0 8 6 26 12 40 5
14 13 33 16 43 13 43 44 10 61 -66 l6 -28 92 6 c54 4 102 3 118 -3 19 -8 34
-6 64 8 21 10 45 16 52 13 9 -4 11 0 7 11 -8 20 15 21 61 2 35 -15 41 -11 35
19 -1 6 4 5 10 -2 8 -7 32 -9 69 -6 52 6 55 5 42 -11 -11 -14 -12 -19 -3 -25
8 -4 10 -15 6 -26 -5 -13 -3 -16 7 -13 17 6 19 27 5 48 -7 10 -4 9 10 -3 11
-9 24 -14 27 -10 13 13 7 42 -10 46 -13 3 -12 5 5 6 29 1 62 18 62 31 0 16
-37 12 -54 -6 -14 -13 -18 -14 -30 -1 -9 8 -11 18 -6 23 13 13 0 54 -17 54 -8
0 -11 5 -8 10 8 13 11 14 -75 -14 -41 -13 -93 -27 -115 -31 -22 -4 -44 -12
-48 -18 -5 -7 -7 -1 -4 15 3 22 -1 28 -21 33 -28 7 -43 -2 -23 -14 18 -11 -7
-51 -31 -51 -10 0 -18 -8 -18 -17 -1 -17 -1 -17 -11 0 -6 10 -8 28 -5 40 3 11
1 26 -5 33 -7 9 -4 14 12 19 22 7 21 8 -12 25 -27 14 -36 27 -44 61 l-11 44
-44 -4 c-24 -1 -53 -9 -64 -17 -37 -26 -55 -12 -33 24 5 7 3 12 -7 12 -21 0
-50 46 -42 66 3 8 10 12 16 9 5 -3 10 -2 10 4 0 5 12 9 26 8 15 -1 29 4 32 12
3 10 -2 11 -19 7 -21 -6 -22 -6 -7 6 22 17 81 52 90 52 4 1 14 10 22 21 9 11
16 15 16 9 0 -6 -12 -24 -27 -40 -18 -18 -29 -42 -29 -62 -2 -36 3 -40 22 -14
12 16 13 15 14 -6 0 -14 4 -21 11 -16 6 3 15 1 19 -6 6 -9 12 -9 30 0 29 15
33 10 35 -52 4 -84 5 -88 13 -88 5 0 14 11 20 25 6 14 18 25 27 25 21 0 19 23
-6 54 -21 26 -21 28 -3 41 11 8 24 15 29 16 6 1 15 2 20 4 6 1 15 3 20 3 11 2
12 57 0 87 -4 11 -13 34 -21 52 -8 17 -14 42 -14 55 0 12 -11 41 -25 63 -26
43 -31 60 -15 50 6 -3 10 -2 10 3 0 13 -42 49 -67 56 -11 4 -33 22 -47 40 -25
34 -25 34 -3 29 20 -4 20 -3 -6 21 -16 15 -55 34 -86 42 -43 12 -62 24 -74 44
-9 15 -33 43 -54 62 -58 53 -84 84 -87 103 -3 20 -24 35 -41 29 -7 -3 -15 3
-19 13 -6 15 -8 15 -16 3 -7 -11 -10 -12 -10 -2 0 9 -7 11 -20 7 -11 -4 -20
-2 -20 4 0 6 -7 11 -16 11 -8 0 -12 -5 -9 -11z m82 -61 c-3 -7 -5 -2 -5 12 0
14 2 19 5 13 2 -7 2 -19 0 -25z m-177 -104 c0 -8 -4 -12 -10 -9 -5 3 -10 10
-10 16 0 5 5 9 10 9 6 0 10 -7 10 -16z m70 -94 c6 -11 17 -20 24 -20 23 0 12
-33 -14 -42 -21 -8 -21 -7 -9 9 8 10 9 14 2 10 -7 -4 -23 -5 -37 -1 -20 5 -23
9 -13 19 7 7 15 11 19 9 13 -8 20 18 7 27 -10 6 -10 9 -2 9 7 0 17 -9 23 -20z
m103 -92 c-4 -7 -8 -17 -8 -22 0 -5 -6 -11 -13 -14 -11 -3 -12 0 -3 16 6 10 7
22 4 26 -3 3 1 6 11 6 11 0 14 -4 9 -12z m87 -8 c0 -5 -5 -10 -11 -10 -5 0 -7
5 -4 10 3 6 8 10 11 10 2 0 4 -4 4 -10z m235 -61 c1 -18 -33 -49 -54 -49 -11
0 -12 -3 -3 -12 8 -8 9 -15 1 -25 -15 -18 -32 -17 -25 2 3 8 0 15 -6 15 -19 0
11 28 38 34 17 5 24 12 20 21 -3 8 -9 22 -12 30 -5 12 -2 13 17 6 13 -4 24
-15 24 -22z m-155 -80 c0 -5 5 -7 12 -3 6 4 3 -4 -8 -18 -18 -24 -19 -25 -26
-7 -4 10 -12 19 -18 19 -6 0 -8 5 -5 10 8 13 45 13 45 -1z m60 -34 c6 3 10 2
10 -3 0 -13 48 -32 65 -26 8 4 15 9 15 13 0 4 7 8 15 8 18 0 14 -21 -3 -23
-25 -3 -26 -5 -9 -15 9 -5 17 -19 17 -29 0 -16 -7 -20 -35 -20 -23 0 -35 5
-35 14 0 15 -21 26 -50 26 -14 0 -18 6 -15 25 2 20 0 23 -12 14 -17 -14 -28
-5 -19 16 4 13 10 14 26 5 11 -6 25 -8 30 -5z m165 -85 c-28 -12 -37 -12 -30
0 3 6 16 10 28 9 21 0 21 -1 2 -9z m-89 -45 c-11 -8 -24 -15 -30 -15 -5 0 -1
7 10 15 10 8 24 14 29 14 6 0 1 -6 -9 -14z m-74 -257 c-7 -7 -12 -8 -12 -2 0
6 3 14 7 17 3 4 9 5 12 2 2 -3 -1 -11 -7 -17z m-4 -51 c2 -11 -3 -17 -17 -17
-23 0 -35 15 -26 31 10 15 39 6 43 -14z m-1 -59 c-3 -8 -6 -5 -6 6 -1 11 2 17
5 13 3 -3 4 -12 1 -19z m493 -2 c0 -12 -10 -14 -38 -7 -2 1 0 6 3 11 9 15 35
12 35 -4z m-93 -52 c-3 -3 -12 -4 -19 -1 -8 3 -5 6 6 6 11 1 17 -2 13 -5z
m-537 -519 c28 -29 32 -39 24 -53 -6 -9 -20 -17 -30 -17 -14 0 -21 12 -30 53
-7 28 -9 52 -5 52 4 0 22 -16 41 -35z"/>
<path d="M8010 4990 c-9 -6 -10 -10 -3 -10 6 0 15 5 18 10 8 12 4 12 -15 0z"/>
<path d="M8110 4851 c0 -11 -3 -27 -7 -37 -5 -13 -3 -15 7 -9 10 6 12 4 7 -7
-8 -22 16 -53 58 -72 22 -11 35 -24 35 -36 0 -22 -16 -35 -25 -20 -11 18 -53
11 -91 -15 -20 -14 -43 -25 -51 -25 -11 0 -13 -7 -8 -27 3 -15 7 -30 7 -33 1
-3 -2 -18 -7 -34 -6 -23 -4 -32 10 -42 10 -8 15 -17 12 -21 -4 -4 -13 -1 -19
5 -19 19 -34 15 -102 -30 -40 -27 -65 -50 -65 -62 -1 -14 4 -17 23 -12 19 5
28 0 44 -26 l20 -31 -29 -29 c-34 -35 -36 -42 -9 -35 11 3 20 1 20 -5 0 -5 5
-6 11 -2 6 3 32 7 57 9 26 1 65 6 86 10 26 5 37 4 33 -2 -4 -6 11 -13 34 -17
41 -7 41 -7 35 -44 -3 -20 -10 -38 -16 -40 -5 -2 -8 -7 -6 -10 6 -9 -46 -8
-61 1 -6 4 -14 3 -18 -2 -5 -10 -80 -7 -136 5 -25 5 -72 44 -54 44 5 0 -12 14
-38 31 -25 16 -49 38 -52 47 -3 9 -21 27 -39 39 l-35 22 15 -51 c14 -46 56
-125 74 -138 3 -3 9 -13 13 -22 3 -10 13 -18 20 -18 7 0 20 -11 27 -25 7 -14
22 -25 32 -25 10 0 18 -7 18 -16 0 -8 5 -12 10 -9 17 11 52 -5 46 -21 -3 -8
-2 -12 3 -9 6 3 21 -6 35 -20 14 -14 32 -25 41 -25 9 0 22 -6 29 -13 8 -8 32
-12 62 -10 27 1 57 2 67 2 9 1 17 9 17 18 0 15 2 14 16 -3 8 -10 13 -14 10 -7
-8 15 21 32 45 26 23 -6 23 -7 5 -42 -17 -32 -57 -61 -89 -65 -12 -1 -30 -6
-40 -11 -34 -15 -198 2 -242 24 -21 12 -45 21 -53 21 -15 0 -103 86 -144 140
-60 81 -92 256 -59 318 18 34 -4 26 -29 -11 -13 -19 -44 -43 -73 -56 -38 -18
-46 -26 -36 -33 11 -8 10 -9 -3 -4 -20 6 -50 -3 -44 -13 3 -4 -26 -21 -64 -39
-38 -18 -72 -36 -75 -42 -3 -5 -29 -10 -56 -10 -54 0 -106 -18 -128 -43 -7
-10 -25 -18 -40 -18 -25 -1 -25 -2 4 -9 17 -4 22 -8 13 -9 -10 0 -18 -4 -18
-9 0 -4 35 -42 78 -84 180 -178 404 -297 651 -348 139 -28 398 -28 526 0 178
39 325 102 475 203 73 49 220 182 220 199 0 11 -74 45 -288 129 -101 40 -215
89 -255 108 -69 34 -72 38 -75 74 -2 25 -8 37 -18 37 -8 0 -13 -4 -10 -8 2 -4
-8 -13 -24 -20 -23 -11 -28 -18 -26 -45 5 -87 -71 -72 -81 16 -3 34 -2 39 7
24 6 -9 16 -15 22 -11 6 4 5 10 -3 15 -10 6 -11 9 -1 9 6 0 12 4 12 9 0 15
-46 61 -61 61 -30 0 -39 15 -30 47 8 29 6 35 -26 62 -31 26 -34 34 -28 58 13
44 10 135 -5 168 -14 32 -20 53 -22 71 -1 6 -9 9 -18 7 -10 -3 -20 2 -23 11
-9 22 -37 20 -37 -3z m-1 -270 c21 -14 18 -69 -5 -86 -24 -18 -40 -19 -25 -2
7 9 8 24 1 47 -13 45 -2 61 29 41z m-79 -201 c-20 -13 -47 -13 -55 0 -4 6 9
10 32 10 28 0 34 -3 23 -10z m235 -168 c17 -12 17 -49 0 -56 -9 -3 -14 -2 -10
3 3 5 1 21 -5 35 -9 26 -4 32 15 18z"/>
<path d="M7930 4661 c0 -20 13 -41 25 -41 18 0 26 25 12 39 -13 13 -37 15 -37
2z"/>
<path d="M3755 4580 c3 -5 12 -7 20 -3 21 7 19 13 -6 13 -11 0 -18 -4 -14 -10z"/>
<path d="M3830 4507 c0 -8 -9 -19 -20 -22 -11 -3 -25 -16 -31 -27 -9 -17 -13
-18 -20 -7 -7 11 -9 11 -9 1 0 -7 7 -15 15 -18 8 -4 12 -10 9 -15 -3 -5 0 -9
5 -9 6 0 11 5 11 11 0 6 8 9 19 6 16 -4 20 3 25 41 3 25 4 48 1 50 -3 3 -5 -2
-5 -11z"/>
<path d="M3732 4445 c0 -16 2 -22 5 -12 2 9 2 23 0 30 -3 6 -5 -1 -5 -18z"/>
<path d="M3546 4425 c-3 -9 0 -15 9 -15 8 0 15 5 15 11 0 5 4 8 9 4 5 -3 12
-1 16 5 4 6 -4 10 -18 10 -14 0 -27 -7 -31 -15z"/>
<path d="M3455 4411 c-6 -10 21 -34 33 -29 4 1 0 11 -10 20 -9 10 -20 13 -23
9z"/>
<path d="M3537 4389 c7 -7 15 -10 18 -7 3 3 -2 9 -12 12 -14 6 -15 5 -6 -5z"/>
<path d="M3586 4385 c4 -8 7 -15 9 -15 2 0 5 7 9 15 3 9 0 15 -9 15 -9 0 -12
-6 -9 -15z"/>
<path d="M2138 4343 c-9 -2 -19 -11 -22 -19 -4 -11 1 -14 21 -11 15 2 28 8 30
14 5 14 -7 21 -29 16z"/>
<path d="M2036 4321 c-3 -4 6 -6 19 -3 14 2 25 6 25 8 0 8 -39 4 -44 -5z"/>
<path d="M2055 4300 c-18 -8 -17 -9 7 -9 15 -1 30 4 33 9 7 12 -12 12 -40 0z"/>
<path d="M2135 4290 c3 -5 8 -10 11 -10 2 0 4 5 4 10 0 6 -5 10 -11 10 -5 0
-7 -4 -4 -10z"/>
<path d="M3678 4223 c6 -2 18 -2 25 0 6 3 1 5 -13 5 -14 0 -19 -2 -12 -5z"/>
<path d="M3630 4190 c0 -5 7 -10 15 -10 8 0 15 5 15 10 0 6 -7 10 -15 10 -8 0
-15 -4 -15 -10z"/>
<path d="M3728 4193 c7 -3 16 -2 19 1 4 3 -2 6 -13 5 -11 0 -14 -3 -6 -6z"/>
<path d="M3695 4150 c-19 -8 -19 -9 2 -9 12 -1 25 4 28 9 7 12 -2 12 -30 0z"/>
<path d="M7822 4108 c9 -7 18 -22 20 -32 1 -11 9 -21 16 -24 10 -3 10 3 -1 30
-7 18 -22 35 -33 36 -17 4 -18 3 -2 -10z"/>
<path d="M3665 4100 c-13 -6 -15 -9 -5 -9 13 -1 13 -2 0 -11 -13 -9 -13 -11 0
-20 11 -7 16 -5 18 5 2 8 7 15 12 15 4 0 10 7 14 15 6 17 -8 18 -39 5z"/>
<path d="M5125 4094 c-11 -2 -44 -9 -73 -15 -49 -10 -61 -18 -137 -97 -94 -97
-158 -201 -199 -327 -15 -44 -31 -89 -36 -100 -16 -38 -28 -90 -35 -155 -3
-36 -12 -92 -20 -125 -7 -33 -19 -87 -25 -120 -6 -33 -17 -82 -25 -110 -7 -27
-16 -67 -20 -87 -3 -21 -10 -38 -14 -38 -4 0 -13 -39 -20 -87 -13 -97 -30
-163 -42 -163 -4 0 -10 -24 -14 -52 -11 -88 -35 -201 -46 -214 -9 -11 -18 -68
-21 -124 0 -8 -11 -26 -23 -40 -34 -39 -67 -99 -60 -110 3 -5 -3 -39 -15 -76
-20 -65 -27 -183 -14 -232 6 -20 11 -22 43 -16 42 8 52 20 45 54 -4 24 -4 24
5 3 14 -32 25 -29 18 5 -3 15 -2 34 4 42 6 11 9 2 9 -28 0 -36 3 -43 18 -40 9
2 18 13 20 26 2 12 10 22 18 22 8 0 14 5 14 10 0 16 27 12 34 -5 4 -11 13 -14
29 -10 17 5 26 2 31 -10 3 -10 12 -15 21 -11 22 8 18 -12 -5 -26 -13 -8 -20
-24 -20 -43 0 -16 4 -25 8 -19 16 23 43 24 51 2 l8 -22 5 22 c4 15 11 20 22
16 19 -7 20 -27 4 -54 -10 -15 -10 -22 -1 -31 10 -10 14 -8 20 7 4 10 13 24
21 30 8 5 14 26 15 46 1 36 17 44 17 9 0 -28 8 -30 52 -13 38 15 41 15 50 -2
6 -10 18 -26 27 -35 9 -9 27 -31 40 -49 17 -24 27 -30 34 -23 6 6 22 11 36 11
15 0 35 12 52 31 15 17 32 28 38 25 7 -4 8 -1 5 8 -4 10 -1 16 9 16 9 0 17 10
19 23 2 17 9 21 29 19 17 -2 29 3 33 13 3 9 10 14 14 11 5 -3 15 4 22 15 12
15 26 19 75 19 33 0 76 5 95 11 19 6 46 12 60 13 14 2 34 6 45 9 11 3 40 7 65
8 36 2 55 11 96 45 64 54 130 68 164 34 16 -16 28 -20 51 -15 16 4 29 13 29
20 0 8 7 11 20 8 19 -5 23 -15 33 -68 2 -11 7 6 11 38 6 49 4 62 -14 92 -11
19 -30 37 -40 40 -11 4 -20 11 -20 17 0 6 -7 16 -15 22 -13 9 -9 17 25 53 22
24 37 43 33 43 -4 0 2 7 13 16 18 14 18 15 -11 11 -47 -6 -58 -10 -92 -34 -17
-13 -37 -23 -43 -23 -7 0 -24 -6 -38 -14 -15 -8 -53 -25 -84 -37 -53 -21 -62
-21 -115 -10 -65 14 -213 107 -264 166 -17 18 -43 36 -59 40 -64 14 -121 129
-140 279 -7 52 -5 63 10 76 25 22 31 47 14 54 -9 3 -12 11 -9 17 4 5 -1 19
-10 29 -9 10 -15 24 -14 32 3 21 -12 48 -27 48 -13 0 -19 13 -15 33 1 5 -7 20
-18 35 -10 15 -22 41 -25 59 -4 17 -14 34 -23 37 -8 4 -13 12 -10 20 3 7 1 18
-5 24 -17 17 -13 152 5 195 21 48 41 56 75 28 36 -28 98 -60 152 -77 61 -20
235 -31 244 -15 4 6 21 11 38 11 22 0 31 6 35 20 8 29 29 9 37 -35 4 -19 11
-35 15 -35 5 0 11 -19 15 -41 5 -31 3 -46 -9 -59 -8 -9 -15 -20 -15 -24 0 -4
-20 -32 -45 -63 -70 -85 -72 -131 -9 -189 29 -26 43 -31 76 -30 28 2 43 -3 50
-14 9 -14 20 -15 72 -8 100 14 106 17 120 50 10 23 11 40 4 60 -14 40 -26 43
-55 17 -15 -13 -23 -19 -19 -12 4 8 -2 15 -18 19 -27 6 -90 69 -112 112 -18
35 -18 86 1 102 9 7 13 21 9 35 -3 13 -1 26 5 29 23 15 3 179 -24 198 -5 4
-10 30 -11 59 -1 43 -5 55 -30 78 -39 37 -244 133 -244 115 0 -2 -9 0 -21 6
-15 8 -17 15 -10 24 7 9 7 16 0 23 -7 7 -3 12 15 17 18 4 26 13 26 27 0 17 5
20 21 16 22 -6 80 42 92 76 4 9 14 17 22 17 11 0 15 7 13 21 -2 17 5 24 37 34
22 7 58 22 80 34 48 26 66 26 146 3 35 -11 86 -24 112 -31 28 -6 62 -24 80
-41 18 -16 37 -30 43 -30 6 0 18 -25 28 -55 9 -30 21 -55 26 -55 5 0 7 -6 4
-14 -3 -7 23 -64 56 -125 34 -62 60 -114 57 -117 -3 -3 -52 -7 -108 -9 -175
-5 -180 -8 -233 -154 -21 -59 -24 -76 -15 -98 l11 -28 12 25 c6 14 19 26 29
28 18 3 23 -13 7 -23 -22 -13 -9 -43 25 -59 19 -9 38 -23 42 -31 4 -7 22 -15
38 -17 17 -2 32 -6 35 -9 3 -3 29 -10 59 -16 65 -13 102 -3 121 32 16 30 1 92
-29 119 -21 19 -100 50 -155 60 -52 10 -41 27 35 53 81 28 111 29 144 1 33
-29 45 -79 44 -190 0 -48 2 -92 6 -98 8 -13 45 26 45 47 0 7 12 41 26 75 14
34 23 70 20 82 -6 24 13 148 24 156 13 8 -19 221 -41 280 -30 81 -78 176 -97
193 -34 30 -190 105 -292 140 -193 66 -279 79 -525 83 -121 1 -229 1 -240 -2z
m215 -577 c68 -39 106 -86 83 -100 -8 -5 -78 11 -175 39 -37 11 -63 25 -73 41
-17 25 -12 31 29 37 8 1 19 5 22 9 12 11 75 -3 114 -26z m7 -103 c-3 -3 -12
-4 -19 -1 -8 3 -5 6 6 6 11 1 17 -2 13 -5z m189 -430 c-3 -9 -6 -18 -6 -20 0
-2 -7 -4 -15 -4 -18 0 -19 12 -3 28 17 17 31 15 24 -4z m-817 -246 c0 -13 -4
-32 -9 -43 -7 -15 -9 -10 -9 23 -1 23 4 42 9 42 6 0 10 -10 9 -22z m-350 -562
c-18 -25 -34 -44 -36 -42 -8 8 26 74 43 84 30 17 28 6 -7 -42z m183 -70 c2
-16 -2 -31 -8 -33 -7 -2 -12 13 -12 44 -1 51 14 43 20 -11z m-40 -48 c0 -72
-5 -85 -13 -38 -6 40 -7 38 -5 -22 1 -50 -1 -68 -11 -68 -7 0 -13 -5 -13 -11
0 -8 -5 -8 -15 1 -8 7 -15 19 -15 27 0 8 -3 12 -7 10 -16 -10 -13 71 2 86 8 9
15 21 15 27 0 6 5 8 10 5 6 -3 13 2 17 11 6 16 7 16 14 -2 7 -17 8 -16 8 5 2
42 14 14 13 -31z"/>
<path d="M2265 3359 c-89 -13 -136 -32 -210 -83 -113 -80 -183 -172 -170 -225
4 -14 8 -51 10 -81 1 -30 12 -117 24 -193 25 -168 25 -157 1 -157 -11 0 -20
-6 -21 -12 -3 -37 5 -78 23 -118 11 -25 26 -67 34 -93 9 -28 19 -45 26 -41 6
4 8 -1 4 -14 -8 -25 9 -62 28 -62 8 0 16 -18 20 -47 9 -67 56 -161 105 -208
22 -21 41 -43 41 -47 0 -5 -21 -35 -47 -67 -52 -63 -51 -63 -217 -91 -32 -5
-64 -14 -70 -19 -6 -4 -28 -11 -48 -15 -71 -13 -138 -37 -138 -50 0 -16 107
-119 175 -168 75 -54 220 -124 320 -154 78 -23 112 -27 263 -32 153 -4 184 -2
269 18 155 36 284 98 430 207 68 51 133 116 154 155 7 13 1 25 -27 53 -34 34
-40 36 -78 31 -35 -6 -48 -2 -86 22 -46 30 -140 118 -175 166 -15 20 -32 28
-69 33 -36 4 -47 3 -42 -5 4 -7 1 -12 -7 -12 -10 0 -14 9 -12 28 12 124 14
179 5 192 -6 10 -10 11 -10 3 0 -7 -6 -11 -12 -9 -7 1 -10 1 -5 -1 4 -3 7 -16
7 -29 0 -19 -5 -24 -27 -25 -24 -2 -25 -2 -5 -6 28 -6 28 -12 -3 -41 l-25 -24
-35 37 c-37 40 -37 51 1 65 13 5 24 16 24 24 0 7 9 16 21 19 15 4 20 12 17 29
-2 18 -10 24 -36 26 -20 2 -30 7 -26 14 4 7 2 8 -5 4 -6 -4 -40 13 -79 42 -37
27 -80 52 -95 56 -28 7 -28 7 -11 -19 28 -42 13 -55 -62 -55 -101 0 -155 25
-124 56 6 6 15 53 21 105 5 52 12 102 15 113 8 25 -15 65 -48 82 -32 16 -62
19 -38 4 17 -12 -57 -4 -104 11 -15 5 -32 6 -37 3 -19 -11 -8 12 21 46 16 19
30 38 30 42 0 4 14 20 31 36 29 27 33 62 6 45 -7 -4 -6 0 2 10 7 9 10 17 5 17
-4 0 -3 5 4 12 8 8 15 8 27 -2 8 -7 15 -8 15 -3 0 19 67 32 145 28 265 -15
290 -21 299 -67 3 -16 15 -41 26 -55 11 -14 20 -30 20 -36 0 -6 11 -27 24 -46
13 -20 28 -58 34 -86 6 -27 16 -78 23 -112 8 -37 18 -63 26 -63 18 0 35 -38
27 -63 -6 -21 -5 -21 12 -5 15 15 16 22 6 56 -7 22 -19 45 -27 52 -20 16 -19
60 1 88 19 28 22 212 5 357 -6 50 -11 94 -11 98 0 4 -39 46 -86 93 -86 85
-160 129 -253 153 -58 15 -181 20 -246 10z m-262 -691 c-2 -5 1 -15 7 -23 8
-9 10 -28 6 -48 -4 -20 -1 -40 6 -50 17 -23 116 -39 163 -26 40 11 76 -4 55
-25 -5 -5 -10 -24 -10 -41 0 -24 -12 -44 -48 -83 -27 -29 -53 -52 -58 -52 -5
0 -22 9 -39 20 -36 24 -45 25 -45 5 0 -9 -9 -15 -22 -15 -20 0 -23 5 -23 43 0
23 -2 56 -4 72 -7 67 0 260 8 245 6 -8 7 -18 4 -22z m154 -114 c-3 -3 -12 -4
-19 -1 -8 3 -5 6 6 6 11 1 17 -2 13 -5z m408 -223 c4 -14 14 -34 22 -44 9 -9
13 -20 9 -25 -4 -4 -49 -7 -100 -7 l-92 -1 -1 33 c-1 36 9 47 51 57 19 5 32
17 39 36 l11 30 27 -26 c15 -15 30 -38 34 -53z m-535 -15 c0 -11 -19 -15 -25
-6 -3 5 1 10 9 10 9 0 16 -2 16 -4z m498 -114 c-3 -11 -12 -16 -26 -15 -12 2
-22 -2 -22 -8 0 -6 -7 -9 -15 -6 -8 4 -17 2 -20 -3 -7 -11 -117 -13 -152 -4
-34 9 -28 24 10 25 17 1 61 6 97 13 105 19 132 18 128 -2z m91 -48 c13 -13 20
-24 15 -24 -5 0 -3 -4 5 -9 26 -16 20 -52 -10 -70 -15 -9 -31 -26 -34 -38 -3
-13 -12 -23 -20 -23 -8 0 -15 -5 -15 -11 0 -5 -5 -7 -10 -4 -6 3 -17 0 -25 -8
-8 -9 -27 -13 -47 -10 -18 2 -45 5 -59 7 -22 3 -77 43 -67 50 15 11 159 45
183 43 26 -2 30 1 30 24 1 29 0 29 -120 29 -75 0 -115 12 -76 25 11 3 24 4 28
2 9 -5 139 36 150 47 10 10 46 -5 72 -30z m171 -118 c0 -3 -4 -8 -10 -11 -5
-3 -10 -1 -10 4 0 6 5 11 10 11 6 0 10 -2 10 -4z m-68 -166 c-3 -22 0 -30 11
-30 12 0 14 -16 13 -92 -1 -63 -5 -93 -14 -96 -7 -2 -10 -8 -7 -12 5 -8 -44
-19 -109 -23 -41 -3 -53 21 -32 63 9 18 16 48 16 66 0 18 6 39 14 46 7 8 16
24 20 35 4 13 21 26 41 33 19 6 35 18 35 26 0 8 4 14 8 14 5 0 7 -13 4 -30z"/>
<path d="M2021 2394 c0 -11 3 -14 6 -6 3 7 2 16 -1 19 -3 4 -6 -2 -5 -13z"/>
<path d="M2610 1729 c0 -5 5 -7 10 -4 6 3 10 8 10 11 0 2 -4 4 -10 4 -5 0 -10
-5 -10 -11z"/>
<path d="M8320 3314 c0 -8 3 -13 8 -11 9 6 8 -43 -2 -66 -5 -9 -6 -26 -3 -37
5 -20 -7 -28 -18 -10 -3 5 -12 7 -20 3 -17 -6 -21 17 -5 33 11 11 2 54 -12 54
-5 0 -7 -13 -3 -30 4 -19 3 -30 -4 -30 -6 0 -10 -6 -8 -12 1 -8 -10 -14 -28
-15 -27 -2 -28 -2 -7 7 27 12 29 20 2 13 -15 -4 -20 0 -20 16 0 13 -4 19 -10
16 -6 -4 -8 -11 -5 -16 4 -5 -2 -9 -13 -9 -10 0 -22 -3 -26 -7 -10 -11 -37
-12 -30 -2 14 23 -23 5 -53 -26 -19 -19 -40 -35 -48 -35 -8 0 -15 -4 -15 -10
0 -14 -27 -12 -33 3 -3 6 -6 3 -6 -7 -1 -11 -4 -16 -7 -13 -9 9 -44 -58 -44
-83 0 -11 -6 -23 -14 -26 -8 -3 -12 -12 -9 -20 3 -7 -2 -17 -11 -20 -9 -3 -16
-12 -16 -20 0 -8 -4 -14 -10 -14 -5 0 -10 -6 -10 -13 0 -7 -5 -18 -12 -25 -16
-16 -37 -79 -44 -132 -9 -67 5 -190 21 -190 7 0 15 -13 17 -30 3 -16 1 -30 -3
-30 -7 0 17 -125 28 -143 11 -18 21 31 22 110 1 62 4 74 21 83 23 12 20 17 44
-70 22 -79 57 -110 135 -119 34 -4 75 -5 91 -3 35 5 80 56 111 127 30 68 51
59 93 -37 22 -50 30 -79 22 -81 -7 -3 -2 -16 12 -36 28 -39 26 -78 -3 -73 -11
2 -29 3 -40 3 -11 -1 -33 -1 -50 0 -93 5 -100 4 -100 -11 0 -9 12 -17 29 -20
21 -4 32 -12 37 -31 6 -25 5 -27 -45 -34 -84 -13 -156 -12 -156 3 0 6 5 12 11
12 14 0 49 39 49 54 0 10 13 23 46 44 16 10 29 72 14 72 -6 0 -27 -16 -46 -35
-19 -20 -39 -33 -45 -30 -5 4 -9 2 -9 -2 0 -5 -16 -17 -36 -28 -50 -27 -60
-49 -34 -77 11 -12 20 -26 20 -32 0 -22 32 -45 53 -37 20 7 62 8 205 3 31 -1
51 -6 47 -12 -3 -5 -12 -7 -20 -3 -9 3 -23 -1 -32 -8 -12 -10 -15 -10 -9 -1
10 17 -5 15 -33 -4 -32 -23 -53 -74 -36 -90 19 -20 71 -22 59 -3 -4 8 0 7 15
-1 12 -6 30 -8 41 -5 19 6 65 74 55 83 -3 3 -5 -1 -5 -8 0 -11 -3 -11 -11 -3
-9 9 -8 16 3 27 17 17 54 11 62 -9 3 -8 13 -11 26 -8 17 5 23 -2 37 -35 20
-51 40 -61 54 -25 9 24 7 30 -15 46 -26 19 -26 53 0 43 8 -3 14 -1 14 5 0 6 7
9 15 5 12 -4 14 0 11 19 -3 14 -1 23 3 20 5 -2 11 4 14 15 3 11 1 23 -5 26 -6
4 -5 10 3 15 11 7 11 9 -2 9 -19 0 -61 34 -53 43 3 3 -10 9 -30 12 -33 7 -76
47 -76 72 0 4 38 7 84 5 80 -3 84 -2 115 26 20 18 42 54 56 93 35 99 49 86 53
-48 1 -64 7 -113 12 -113 10 0 14 14 11 37 -1 7 5 36 14 65 8 28 15 73 15 100
0 34 4 48 14 48 20 0 25 21 27 113 1 80 -6 132 -21 152 -10 12 -13 45 -10 100
1 31 3 36 9 20 5 -11 6 -24 3 -29 -3 -5 1 -6 7 -1 16 9 8 55 -15 91 -10 14
-18 41 -20 61 -2 38 -14 59 -14 25 0 -26 -16 -37 -24 -17 -3 8 -1 17 4 20 19
12 -1 32 -27 27 -22 -4 -25 -2 -21 16 4 13 0 23 -9 26 -8 3 -11 2 -8 -4 3 -5
-3 -9 -12 -9 -10 1 -36 -3 -57 -7 -29 -5 -37 -4 -32 5 6 9 0 11 -21 7 -15 -2
-29 -5 -30 -6 -8 -6 -30 -5 -45 2 -21 10 -18 31 8 55 11 10 15 15 9 12 -9 -5
-30 -8 -75 -11 -18 -2 -41 -23 -33 -32 4 -3 1 -6 -5 -6 -7 0 -12 5 -12 11 0 6
-7 8 -16 5 -15 -6 -15 -4 -1 16 8 13 20 22 27 20 14 -3 -2 29 -24 48 -9 7 -16
18 -16 25 0 7 -7 15 -15 19 -9 3 -15 0 -15 -10z m60 -185 c0 -9 -7 -16 -15
-16 -12 0 -12 3 -2 15 9 12 9 16 -1 19 -6 3 -9 9 -6 15 8 12 24 -10 24 -33z
m-223 -166 c21 -10 43 -24 48 -31 11 -14 51 -23 94 -22 25 0 44 18 35 32 -3 4
0 8 5 8 6 0 11 -9 11 -20 0 -24 27 -37 43 -21 6 6 19 11 28 11 10 0 20 6 22
13 4 7 6 6 6 -5 1 -9 -4 -18 -11 -20 -6 -2 -8 -9 -4 -16 9 -14 36 -4 36 13 0
17 121 -54 167 -98 23 -22 34 -43 40 -76 4 -25 7 -48 8 -51 0 -3 7 -16 14 -28
7 -13 11 -26 9 -28 -3 -2 -36 6 -74 17 -151 44 -225 47 -259 9 -26 -29 -80
-26 -109 5 -30 33 -84 35 -234 11 -63 -9 -116 -15 -120 -12 -3 3 0 16 6 29 6
12 16 40 22 62 26 92 63 185 71 179 5 -3 13 6 19 20 6 17 14 24 25 20 8 -3 12
-10 9 -15 -9 -16 6 -10 28 11 26 24 19 24 65 3z m346 -310 c-7 -2 -19 -2 -25
0 -7 3 -2 5 12 5 14 0 19 -2 13 -5z m-613 -34 c0 -20 -25 -48 -42 -49 -5 0 -8
8 -8 18 0 14 2 15 10 2 7 -11 10 -7 10 18 0 22 5 32 15 32 9 0 15 -9 15 -21z
m135 11 c-3 -5 -1 -10 4 -10 6 0 11 5 11 10 0 6 6 6 14 -2 11 -10 10 -15 -8
-29 -12 -8 -29 -18 -38 -22 -24 -8 -23 -37 0 -37 10 0 22 -3 26 -7 3 -4 14 -8
24 -10 9 -1 35 -6 57 -12 33 -7 35 -9 13 -10 -43 -2 -33 -21 11 -21 23 0 48 8
64 20 54 43 57 6 3 -56 -30 -34 -36 -37 -101 -41 -87 -5 -128 15 -144 74 -25
88 -9 143 44 156 11 2 21 5 23 6 2 0 0 -3 -3 -9z m101 -5 l29 -15 -40 1 c-22
0 -34 3 -27 6 6 2 10 9 6 14 -7 13 -1 11 32 -6z m414 -20 c0 -7 -30 -13 -34
-7 -3 4 4 9 15 9 10 1 19 0 19 -2z m224 -11 c11 -28 7 -44 -9 -38 -8 4 -15 17
-15 30 0 27 15 32 24 8z m-98 -29 c8 -33 -2 -99 -21 -135 -23 -45 -91 -61
-169 -39 -37 10 -86 48 -86 67 0 5 32 10 72 11 74 2 92 7 83 21 -6 10 30 20
77 20 l37 0 -34 34 c-19 18 -35 36 -35 40 0 3 16 6 35 6 29 0 36 -4 41 -25z
m-566 -11 c0 -22 -2 -25 -15 -14 -12 10 -13 16 -4 26 16 20 19 18 19 -12z
m450 -14 c0 -4 -6 -10 -14 -13 -10 -4 -12 0 -9 14 5 18 23 18 23 -1z m-27 -47
c-7 -2 -19 -2 -25 0 -7 3 -2 5 12 5 14 0 19 -2 13 -5z m-54 -240 c7 -18 8 -39
3 -58 -10 -34 -32 -37 -115 -13 -60 18 -57 34 6 30 46 -3 47 -3 47 27 0 27 6
33 41 40 4 0 12 -11 18 -26z"/>
<path d="M7963 3228 c-30 -34 -35 -46 -22 -54 7 -4 9 -3 5 4 -3 5 6 24 20 41
30 36 28 42 -3 9z"/>
<path d="M2606 2781 c-3 -4 -25 -12 -48 -16 -75 -14 -80 -15 -125 -35 -24 -10
-46 -26 -49 -34 -9 -25 11 -70 37 -83 13 -7 29 -20 36 -30 16 -20 143 -33 143
-14 0 6 -3 10 -7 10 -5 -1 -19 0 -33 1 -24 2 -24 2 5 11 17 5 46 10 65 10 56
1 69 7 63 30 -7 25 -30 34 -105 43 -32 4 -58 11 -58 16 0 13 128 41 156 34 24
-6 25 -5 15 13 -20 38 -82 66 -95 44z"/>
<path d="M5227 2733 c-27 -26 12 -90 72 -121 37 -18 45 -36 56 -115 8 -62 43
-101 88 -99 17 1 72 -5 121 -13 95 -16 112 -12 118 27 2 15 16 26 50 37 26 9
53 22 60 29 6 6 25 12 40 12 37 0 45 23 19 49 -12 12 -21 24 -21 29 0 4 -26
28 -58 53 -50 40 -62 45 -94 41 -25 -3 -56 3 -91 18 -48 20 -60 21 -136 12
-83 -10 -84 -10 -107 16 -22 23 -26 24 -50 11 -23 -12 -27 -11 -39 4 -13 19
-18 20 -28 10z m403 -213 c0 -5 -2 -10 -4 -10 -3 0 -8 5 -11 10 -3 6 -1 10 4
10 6 0 11 -4 11 -10z"/>
<path d="M2881 2646 c-8 -10 -9 -16 -1 -21 5 -3 10 -15 10 -26 0 -10 5 -19 11
-19 7 0 9 -11 6 -26 -3 -18 -1 -22 6 -15 6 6 12 35 15 66 4 50 3 55 -16 55
-11 0 -25 -6 -31 -14z"/>
<path d="M2826 2437 c-10 -7 -18 -30 -21 -55 -3 -37 -1 -42 18 -42 16 0 18 3
9 12 -18 18 -16 78 3 78 8 0 15 5 15 10 0 13 -3 13 -24 -3z"/>
<path d="M8200 2122 c0 -12 19 -26 26 -19 2 2 -2 10 -11 17 -9 8 -15 8 -15 2z"/>
<path d="M8900 2060 c0 -5 5 -10 11 -10 5 0 7 5 4 10 -3 6 -8 10 -11 10 -2 0
-4 -4 -4 -10z"/>
<path d="M9119 2057 c7 -9 23 -17 34 -17 22 0 18 10 -5 14 -7 1 -20 6 -28 11
-13 8 -13 7 -1 -8z"/>
<path d="M9270 2055 c-10 -13 -9 -15 11 -16 13 -1 41 -3 62 -4 30 -2 37 1 37
16 0 16 -8 19 -49 19 -31 0 -53 -5 -61 -15z"/>
<path d="M8715 2010 c-4 -6 -15 -8 -26 -5 -29 10 -34 -19 -10 -68 12 -24 21
-50 21 -58 0 -39 165 -155 246 -175 16 -4 70 -24 121 -45 131 -55 144 -54 193
24 22 34 40 71 40 82 0 12 4 25 9 30 13 15 41 105 41 132 0 17 -6 23 -22 24
-44 1 -104 9 -143 19 -59 15 -116 18 -149 9 -19 -6 -32 -5 -37 2 -3 6 -39 12
-80 14 -41 2 -98 8 -128 14 -66 13 -68 13 -76 1z"/>
<path d="M7785 1995 c-101 -16 -107 -19 -129 -56 -36 -62 -64 -389 -33 -389
18 0 112 33 159 55 26 13 39 27 43 47 9 38 122 226 146 241 26 16 24 34 -7 79
-31 44 -42 45 -179 23z"/>
<path d="M8647 1927 c-3 -8 -20 -14 -40 -15 -19 -1 -76 -19 -127 -41 -108 -47
-154 -58 -165 -40 -6 8 -4 11 6 7 16 -6 77 37 67 47 -11 11 -57 15 -80 6 -17
-6 -29 -5 -42 5 -17 12 -21 11 -31 -3 -7 -10 -20 -14 -32 -11 -12 3 -27 2 -34
-3 -11 -6 -8 -14 11 -35 l25 -26 -45 6 c-25 3 -56 14 -70 24 -48 35 -51 35
-34 -1 9 -20 14 -43 11 -52 -6 -15 -9 -15 -32 2 -13 10 -25 28 -25 40 0 31
-11 54 -21 47 -16 -9 -10 -90 12 -160 16 -52 30 -77 58 -101 42 -38 42 -38 67
-17 15 13 16 15 2 10 -13 -4 -15 -1 -11 12 3 9 11 23 17 31 8 11 8 13 0 8 -7
-4 -14 1 -17 12 -4 16 0 18 19 15 36 -7 69 -21 85 -37 8 -7 40 -23 71 -34 49
-18 60 -19 75 -7 10 7 26 14 36 14 43 0 116 51 175 121 63 74 104 161 84 181
-6 6 -11 4 -15 -5z m-377 -107 c0 -5 -2 -10 -4 -10 -3 0 -8 5 -11 10 -3 6 -1
10 4 10 6 0 11 -4 11 -10z"/>
<path d="M4555 1740 c3 -5 8 -10 11 -10 2 0 4 5 4 10 0 6 -5 10 -11 10 -5 0
-7 -4 -4 -10z"/>
<path d="M4618 1744 c-9 -14 7 -50 16 -36 4 7 3 19 -2 28 -5 9 -12 13 -14 8z"/>
<path d="M4515 1710 c3 -5 8 -10 11 -10 2 0 4 5 4 10 0 6 -5 10 -11 10 -5 0
-7 -4 -4 -10z"/>
<path d="M7886 1701 c-3 -4 1 -16 8 -27 12 -15 16 -16 29 -5 9 7 13 19 10 27
-6 15 -39 19 -47 5z"/>
<path d="M8561 1659 c-21 -27 -85 -80 -160 -133 -17 -12 -19 -15 -6 -10 11 4
30 8 42 8 12 1 21 5 20 10 -1 5 4 11 12 14 9 3 11 0 6 -8 -6 -9 -4 -12 7 -8
25 10 158 97 158 104 0 6 -48 55 -53 53 -1 0 -13 -14 -26 -30z"/>
<path d="M8180 1666 c0 -3 9 -10 20 -16 11 -6 20 -8 20 -6 0 3 -9 10 -20 16
-11 6 -20 8 -20 6z"/>
<path d="M7960 1640 c0 -11 4 -20 9 -20 4 0 20 -18 35 -40 15 -23 31 -38 36
-35 13 8 -26 75 -56 98 -23 17 -24 17 -24 -3z"/>
<path d="M6413 1585 c-6 -22 -11 -32 -12 -22 -1 9 -6 17 -11 17 -6 0 -10 -8
-8 -17 2 -13 -3 -18 -19 -17 -18 1 -20 -2 -13 -21 10 -26 -8 -185 -21 -185 -5
0 -9 -32 -9 -71 0 -39 4 -68 9 -65 12 8 23 -23 16 -45 -9 -29 26 -12 78 38 41
39 43 45 44 97 0 31 -3 56 -6 56 -4 0 -6 29 -4 64 2 36 -1 67 -6 71 -6 3 -8
19 -4 35 4 23 2 30 -11 30 -18 0 -22 16 -5 22 6 2 7 12 1 28 -9 23 -9 23 -19
-15z"/>
<path d="M8665 1584 c0 -23 4 -28 19 -26 14 3 17 -1 13 -12 -4 -9 -2 -16 3
-16 17 0 11 24 -13 54 l-23 28 1 -28z"/>
<path d="M6331 1484 c0 -11 3 -14 6 -6 3 7 2 16 -1 19 -3 4 -6 -2 -5 -13z"/>
<path d="M6511 1464 c0 -11 3 -14 6 -6 3 7 2 16 -1 19 -3 4 -6 -2 -5 -13z"/>
<path d="M6331 1444 c0 -11 3 -14 6 -6 3 7 2 16 -1 19 -3 4 -6 -2 -5 -13z"/>
<path d="M6311 1394 c0 -11 3 -14 6 -6 3 7 2 16 -1 19 -3 4 -6 -2 -5 -13z"/>
<path d="M6492 1330 c0 -14 2 -19 5 -12 2 6 2 18 0 25 -3 6 -5 1 -5 -13z"/>
<path d="M6317 1146 c-4 -10 -5 -21 -2 -24 9 -9 17 6 13 25 -3 17 -4 17 -11
-1z"/>
<path d="M5605 1130 c-3 -5 -1 -10 4 -10 6 0 11 5 11 10 0 6 -2 10 -4 10 -3 0
-8 -4 -11 -10z"/>
<path d="M5701 1124 c0 -11 3 -14 6 -6 3 7 2 16 -1 19 -3 4 -6 -2 -5 -13z"/>
<path d="M6030 1039 c0 -11 4 -18 10 -14 5 3 7 12 3 20 -7 21 -13 19 -13 -6z"/>
<path d="M6181 1044 c0 -11 3 -14 6 -6 3 7 2 16 -1 19 -3 4 -6 -2 -5 -13z"/>
<path d="M5980 1016 c0 -2 9 -6 20 -9 11 -3 20 -1 20 4 0 5 -9 9 -20 9 -11 0
-20 -2 -20 -4z"/>
<path d="M5595 968 c8 -39 25 -61 25 -32 0 31 -12 64 -22 64 -6 0 -7 -14 -3
-32z"/>
<path d="M5980 990 c0 -5 5 -10 11 -10 5 0 7 5 4 10 -3 6 -8 10 -11 10 -2 0
-4 -4 -4 -10z"/>
<path d="M6030 964 c0 -8 5 -12 10 -9 6 4 8 11 5 16 -9 14 -15 11 -15 -7z"/>
<path d="M5523 940 c-3 -17 -10 -33 -14 -36 -5 -3 -9 -10 -9 -17 0 -19 27 16
38 51 7 20 7 32 1 32 -5 0 -12 -14 -16 -30z"/>
<path d="M5782 940 c0 -19 2 -27 5 -17 2 9 2 25 0 35 -3 9 -5 1 -5 -18z"/>
<path d="M5801 954 c0 -11 3 -14 6 -6 3 7 2 16 -1 19 -3 4 -6 -2 -5 -13z"/>
<path d="M5961 946 c0 -13 3 -16 6 -7 5 11 7 11 14 0 7 -11 9 -9 9 7 0 12 -6
21 -15 21 -9 0 -15 -9 -14 -21z"/>
<path d="M5691 924 c0 -11 3 -14 6 -6 3 7 2 16 -1 19 -3 4 -6 -2 -5 -13z"/>
<path d="M5583 903 c9 -2 23 -2 30 0 6 3 -1 5 -18 5 -16 0 -22 -2 -12 -5z"/>
<path d="M5845 890 c-3 -5 -1 -10 4 -10 6 0 11 5 11 10 0 6 -2 10 -4 10 -3 0
-8 -4 -11 -10z"/>
<path d="M5548 883 c7 -3 16 -2 19 1 4 3 -2 6 -13 5 -11 0 -14 -3 -6 -6z"/>
<path d="M5595 869 c-4 -11 -9 -18 -12 -15 -3 3 -21 -1 -40 -9 -45 -19 -46
-19 -38 6 5 14 3 20 -5 17 -6 -2 -10 -6 -8 -9 2 -3 -3 -13 -11 -22 -12 -15
-10 -17 22 -17 20 0 47 4 61 9 17 7 26 7 30 -2 2 -7 5 -4 5 6 1 9 5 17 10 17
5 0 11 9 14 20 7 27 -20 26 -28 -1z"/>
<path d="M5781 874 c0 -11 3 -14 6 -6 3 7 2 16 -1 19 -3 4 -6 -2 -5 -13z"/>
<path d="M5710 861 c0 -17 18 -21 24 -6 3 9 0 15 -9 15 -8 0 -15 -4 -15 -9z"/>
<path d="M5631 834 c0 -11 3 -14 6 -6 3 7 2 16 -1 19 -3 4 -6 -2 -5 -13z"/>
</g>
</svg>
